<svg width="24" height="24" viewBox="0 0 24 24" fill="none" xmlns="http://www.w3.org/2000/svg">
<path d="M20.6503 14.863C20.5434 14.7956 20.4212 14.7562 20.2949 14.7487C20.1687 14.7412 20.0427 14.7657 19.9285 14.8199C19.6427 14.9551 19.3274 15.0158 19.0118 14.9964C18.6963 14.977 18.3908 14.8781 18.1237 14.709C17.8566 14.5399 17.6366 14.3059 17.4842 14.029C17.3318 13.752 17.2518 13.441 17.2518 13.1249C17.2518 12.8088 17.3318 12.4978 17.4842 12.2208C17.6366 11.9439 17.8566 11.7099 18.1237 11.5408C18.3908 11.3717 18.6963 11.2728 19.0118 11.2534C19.3274 11.234 19.6427 11.2947 19.9285 11.4299C20.0428 11.4842 20.169 11.5086 20.2953 11.501C20.4217 11.4933 20.544 11.4538 20.651 11.3862C20.7579 11.3185 20.846 11.2249 20.9071 11.114C20.9681 11.0032 21.0001 10.8786 21 10.7521V6.74989C21 6.35207 20.842 5.97054 20.5607 5.68923C20.2794 5.40793 19.8979 5.24989 19.5 5.24989H16.1044C16.1184 5.12539 16.1252 5.00018 16.125 4.87489C16.1243 4.41395 16.0295 3.958 15.8464 3.53499C15.6633 3.11198 15.3957 2.73083 15.06 2.4149C14.5953 1.97841 14.0164 1.68249 13.3904 1.56141C12.7644 1.44034 12.117 1.49905 11.523 1.73076C10.929 1.96247 10.4128 2.3577 10.0341 2.87067C9.65549 3.38364 9.42989 3.99338 9.38347 4.62927C9.36906 4.83612 9.37345 5.04384 9.39659 5.24989H6.00003C5.60221 5.24989 5.22067 5.40793 4.93937 5.68923C4.65807 5.97054 4.50003 6.35207 4.50003 6.74989V9.77052C4.37552 9.75656 4.25032 9.74968 4.12503 9.74989C3.66409 9.75064 3.20816 9.84548 2.78516 10.0286C2.36216 10.2117 1.981 10.4793 1.66503 10.8149C1.34679 11.1511 1.10175 11.5496 0.945386 11.9853C0.789021 12.421 0.724736 12.8843 0.756593 13.3461C0.810338 14.1593 1.15585 14.9257 1.7296 15.5045C2.30334 16.0832 3.06674 16.4354 3.87941 16.4961C4.08624 16.511 4.29401 16.5066 4.50003 16.483V19.4999C4.50003 19.8977 4.65807 20.2793 4.93937 20.5606C5.22067 20.8419 5.60221 20.9999 6.00003 20.9999H19.5C19.8979 20.9999 20.2794 20.8419 20.5607 20.5606C20.842 20.2793 21 19.8977 21 19.4999V15.4977C21.0001 15.371 20.9681 15.2463 20.9069 15.1353C20.8458 15.0243 20.7575 14.9307 20.6503 14.863ZM19.5 19.4999H6.00003V15.4977C6.00007 15.3711 5.96809 15.2466 5.90705 15.1358C5.84602 15.0249 5.75792 14.9313 5.65096 14.8636C5.54401 14.796 5.42167 14.7565 5.29534 14.7488C5.16901 14.7412 5.0428 14.7656 4.92847 14.8199C4.64269 14.9551 4.32737 15.0158 4.01183 14.9964C3.6963 14.977 3.39079 14.8781 3.1237 14.709C2.85662 14.5399 2.63664 14.3059 2.48421 14.029C2.33178 13.752 2.25184 13.441 2.25184 13.1249C2.25184 12.8088 2.33178 12.4978 2.48421 12.2208C2.63664 11.9439 2.85662 11.7099 3.1237 11.5408C3.39079 11.3717 3.6963 11.2728 4.01183 11.2534C4.32737 11.234 4.64269 11.2947 4.92847 11.4299C5.0428 11.4842 5.16901 11.5086 5.29534 11.501C5.42167 11.4933 5.54401 11.4538 5.65096 11.3862C5.75792 11.3185 5.84602 11.2249 5.90705 11.114C5.96809 11.0032 6.00007 10.8786 6.00003 10.7521V6.74989H10.3772C10.5038 6.74994 10.6283 6.71795 10.7392 6.65692C10.85 6.59588 10.9436 6.50779 11.0113 6.40083C11.079 6.29387 11.1184 6.17153 11.1261 6.0452C11.1337 5.91888 11.1093 5.79267 11.055 5.67833C10.9199 5.39255 10.8592 5.07723 10.8786 4.7617C10.898 4.44616 10.9968 4.14065 11.1659 3.87357C11.3351 3.60649 11.569 3.3865 11.8459 3.23407C12.1229 3.08164 12.4339 3.00171 12.75 3.00171C13.0662 3.00171 13.3772 3.08164 13.6541 3.23407C13.9311 3.3865 14.165 3.60649 14.3341 3.87357C14.5033 4.14065 14.6021 4.44616 14.6215 4.7617C14.6409 5.07723 14.5802 5.39255 14.445 5.67833C14.3908 5.79267 14.3663 5.91888 14.374 6.0452C14.3816 6.17153 14.4211 6.29387 14.4888 6.40083C14.5564 6.50779 14.65 6.59588 14.7609 6.65692C14.8718 6.71795 14.9963 6.74994 15.1228 6.74989H19.5V9.77146C19.294 9.74785 19.0862 9.74346 18.8794 9.75833C18.0065 9.82014 17.1917 10.2186 16.607 10.8696C16.0222 11.5206 15.7132 12.3733 15.745 13.2478C15.7769 14.1223 16.1472 14.9502 16.7778 15.557C17.4084 16.1637 18.25 16.5018 19.125 16.4999C19.2503 16.5001 19.3755 16.4932 19.5 16.4793V19.4999Z" fill="#A48FFF"/>
</svg>
