<svg width="25" height="25" viewBox="0 0 25 25" fill="none" xmlns="http://www.w3.org/2000/svg">
<path d="M21.5929 4.78931H3.5929C3.39398 4.78931 3.20322 4.86832 3.06257 5.00898C2.92191 5.14963 2.8429 5.34039 2.8429 5.53931V18.2893C2.8429 18.6871 3.00093 19.0687 3.28224 19.35C3.56354 19.6313 3.94507 19.7893 4.3429 19.7893H20.8429C21.2407 19.7893 21.6223 19.6313 21.9036 19.35C22.1849 19.0687 22.3429 18.6871 22.3429 18.2893V5.53931C22.3429 5.34039 22.2639 5.14963 22.1232 5.00898C21.9826 4.86832 21.7918 4.78931 21.5929 4.78931ZM12.5929 12.7721L5.52133 6.28931H19.6645L12.5929 12.7721ZM9.84696 12.2893L4.3429 17.334V7.24462L9.84696 12.2893ZM10.957 13.3065L12.082 14.3424C12.2203 14.4694 12.4013 14.5399 12.5891 14.5399C12.777 14.5399 12.958 14.4694 13.0963 14.3424L14.2213 13.3065L19.6588 18.2893H5.52133L10.957 13.3065ZM15.3388 12.2893L20.8429 7.24368V17.3349L15.3388 12.2893Z" fill="#A48FFF"/>
</svg>
