<svg width="24" height="24" viewBox="0 0 24 24" fill="none" xmlns="http://www.w3.org/2000/svg">
<path d="M15.39 4.39009C15.5157 4.51592 15.6727 4.60594 15.8448 4.65089C16.0169 4.69583 16.1978 4.69406 16.369 4.64577C16.5402 4.59747 16.6954 4.50439 16.8186 4.37613C16.9418 4.24787 17.0286 4.08906 17.07 3.91609C17.1738 3.48399 17.3909 3.08736 17.699 2.76707C18.007 2.44677 18.3949 2.21437 18.8226 2.09381C19.2503 1.97325 19.7025 1.96888 20.1324 2.08116C20.5624 2.19343 20.9547 2.41829 21.2689 2.73258C21.5831 3.04687 21.8078 3.43922 21.9199 3.86924C22.0321 4.29926 22.0275 4.75139 21.9068 5.17908C21.7861 5.60677 21.5536 5.99456 21.2332 6.3025C20.9128 6.61045 20.5161 6.82743 20.084 6.93109C19.911 6.97249 19.7522 7.05927 19.6239 7.18249C19.4957 7.30571 19.4026 7.46091 19.3543 7.63208C19.306 7.80326 19.3042 7.98422 19.3492 8.15631C19.3941 8.3284 19.4842 8.48539 19.61 8.61109L21.293 10.2931C21.5172 10.5173 21.695 10.7834 21.8163 11.0763C21.9376 11.3691 22.0001 11.6831 22.0001 12.0001C22.0001 12.3171 21.9376 12.631 21.8163 12.9239C21.695 13.2168 21.5172 13.4829 21.293 13.7071L19.61 15.3901C19.4843 15.5159 19.3273 15.6059 19.1552 15.6509C18.9831 15.6958 18.8022 15.6941 18.631 15.6458C18.4598 15.5975 18.3046 15.5044 18.1814 15.3761C18.0582 15.2479 17.9714 15.0891 17.93 14.9161C17.8262 14.484 17.6091 14.0874 17.301 13.7671C16.993 13.4468 16.6051 13.2144 16.1774 13.0938C15.7496 12.9733 15.2975 12.9689 14.8675 13.0812C14.4375 13.1934 14.0453 13.4183 13.7311 13.7326C13.4169 14.0469 13.1922 14.4392 13.08 14.8692C12.9679 15.2993 12.9724 15.7514 13.0931 16.1791C13.2138 16.6068 13.4464 16.9946 13.7668 17.3025C14.0872 17.6104 14.4838 17.8274 14.916 17.9311C15.089 17.9725 15.2478 18.0593 15.376 18.1825C15.5043 18.3057 15.5974 18.4609 15.6457 18.6321C15.694 18.8033 15.6957 18.9842 15.6508 19.1563C15.6058 19.3284 15.5158 19.4854 15.39 19.6111L13.707 21.2931C13.4828 21.5173 13.2167 21.6951 12.9238 21.8164C12.6309 21.9377 12.317 22.0002 12 22.0002C11.683 22.0002 11.369 21.9377 11.0762 21.8164C10.7833 21.6951 10.5171 21.5173 10.293 21.2931L8.60999 19.6101C8.48428 19.4843 8.32729 19.3942 8.15521 19.3493C7.98312 19.3043 7.80216 19.3061 7.63098 19.3544C7.4598 19.4027 7.3046 19.4958 7.18138 19.624C7.05816 19.7523 6.97138 19.9111 6.92999 20.0841C6.82618 20.5162 6.60907 20.9128 6.30102 21.2331C5.99297 21.5534 5.6051 21.7858 5.17737 21.9064C4.74964 22.0269 4.29751 22.0313 3.86753 21.919C3.43755 21.8067 3.04527 21.5819 2.73109 21.2676C2.4169 20.9533 2.19217 20.561 2.08004 20.1309C1.96791 19.7009 1.97242 19.2488 2.09313 18.8211C2.21383 18.3934 2.44635 18.0056 2.76675 17.6977C3.08715 17.3897 3.48385 17.1728 3.91599 17.0691C4.08896 17.0277 4.24777 16.9409 4.37603 16.8177C4.50429 16.6945 4.59737 16.5393 4.64566 16.3681C4.69396 16.1969 4.69573 16.016 4.65078 15.8439C4.60584 15.6718 4.51581 15.5148 4.38999 15.3891L2.70699 13.7071C2.48281 13.4829 2.30499 13.2168 2.18366 12.9239C2.06234 12.631 1.9999 12.3171 1.9999 12.0001C1.9999 11.6831 2.06234 11.3691 2.18366 11.0763C2.30499 10.7834 2.48281 10.5173 2.70699 10.2931L4.38999 8.61009C4.51569 8.48426 4.67268 8.39423 4.84476 8.34929C5.01685 8.30435 5.19781 8.30612 5.36899 8.35441C5.54017 8.40271 5.69537 8.49579 5.81859 8.62405C5.94181 8.75231 6.02859 8.91111 6.06999 9.08409C6.17379 9.51619 6.3909 9.91281 6.69895 10.2331C7.00701 10.5534 7.39487 10.7858 7.8226 10.9064C8.25033 11.0269 8.70246 11.0313 9.13244 10.919C9.56242 10.8067 9.9547 10.5819 10.2689 10.2676C10.5831 9.95331 10.8078 9.56095 10.9199 9.13094C11.0321 8.70092 11.0275 8.24879 10.9068 7.8211C10.7861 7.39341 10.5536 7.00562 10.2332 6.69767C9.91282 6.38973 9.51612 6.17275 9.08399 6.06909C8.91101 6.02769 8.75221 5.94091 8.62394 5.81769C8.49568 5.69447 8.40261 5.53927 8.35431 5.36809C8.30601 5.19692 8.30424 5.01596 8.34919 4.84387C8.39413 4.67178 8.48416 4.51479 8.60999 4.38909L10.293 2.70709C10.5171 2.48291 10.7833 2.30509 11.0762 2.18377C11.369 2.06244 11.683 2 12 2C12.317 2 12.6309 2.06244 12.9238 2.18377C13.2167 2.30509 13.4828 2.48291 13.707 2.70709L15.39 4.39009Z" stroke="#A48FFF" stroke-width="2" stroke-linecap="round" stroke-linejoin="round"/>
</svg>
